<?xml version="1.0" encoding="UTF-8"?>
<svg width="400" height="300" viewBox="0 0 400 300" xmlns="http://www.w3.org/2000/svg">
  <rect width="400" height="300" fill="#2a2a2a"/>
  <path d="M200,150 C200,116.863 166.421,90 125,90 C83.5786,90 50,116.863 50,150 C50,183.137 83.5786,210 125,210 L275,210 C316.421,210 350,183.137 350,150 C350,116.863 316.421,90 275,90 C233.579,90 200,116.863 200,150 Z" fill="#444444"/>
  <circle cx="125" cy="130" r="30" fill="#666666"/>
  <circle cx="275" cy="130" r="30" fill="#666666"/>
  <path d="M125,170 L275,170 L275,190 L125,190 Z" fill="#555555"/>
  <text x="200" y="260" font-family="Arial, sans-serif" font-size="20" fill="#b0b0b0" text-anchor="middle">Food Image</text>
</svg>